<svg width="716" height="627" viewBox="0 0 716 627" fill="none" xmlns="http://www.w3.org/2000/svg">
<path d="M534.501 502.515C580.752 472.18 614.828 430.645 632.098 383.501C649.431 336.187 648.99 285.536 630.839 238.44C617.225 203.119 594.148 171.092 563.622 144.718C562.678 141.559 559.855 139.374 555.613 137.978C555.552 137.958 555.491 137.941 555.429 137.921C547.611 131.688 539.353 125.806 530.686 120.316C483.661 90.5269 426.861 73.6287 368.01 71.9114C309.16 70.194 251.102 83.7408 201.731 110.715C152.36 137.69 114.063 176.789 92.0651 222.707C91.3511 224.198 91.1087 225.543 91.4127 226.72C91.7201 227.909 92.5595 228.827 93.7965 229.508C96.2314 230.848 100.383 231.366 105.901 231.256C116.984 231.035 133.998 228.26 155.025 223.802C197.094 214.884 255.378 199.198 314.741 183.59C374.115 167.979 434.571 152.447 481.015 143.821C504.241 139.507 523.935 136.925 538.227 136.919C545.181 136.916 550.819 137.527 554.954 138.821C557.6 140.933 560.196 143.086 562.74 145.279C563.449 148.069 562.533 151.726 560.018 156.213C557.47 160.76 553.337 166.062 547.834 172.016C536.829 183.92 520.415 198.354 500.456 214.444C460.541 246.619 406.522 285.359 353.437 323.638C300.361 361.91 248.216 399.724 212.079 430.031C194.015 445.18 179.922 458.476 171.713 469.032C167.613 474.305 164.943 478.939 164.007 482.812C163.538 484.755 163.499 486.531 163.958 488.107C164.367 489.515 165.167 490.734 166.357 491.752L154.561 502.817C108.139 467.803 75.6568 421.667 61.4996 370.657C47.3091 319.528 52.2132 265.967 75.5494 217.255C98.887 168.54 139.532 127.028 191.972 98.3762C244.413 69.7246 306.097 55.3296 368.633 57.1545C431.17 58.9795 491.513 76.9357 541.457 108.573C591.4 140.211 628.513 183.989 647.766 233.944C667.019 283.896 667.485 337.612 649.102 387.794C630.762 437.859 594.543 481.994 545.335 514.219L534.501 502.515ZM561.768 143.131C560.563 142.109 559.346 141.097 558.119 140.093C559.745 140.937 560.961 141.949 561.768 143.131Z" fill="#CECECE" stroke="black"/>
<path d="M375.694 98.7502C390.187 98.8128 403.66 99.2506 413.509 99.673C418.434 99.8842 422.455 100.092 425.245 100.246C426.639 100.324 427.726 100.388 428.465 100.433C428.835 100.455 429.118 100.473 429.308 100.485C429.403 100.491 429.475 100.495 429.524 100.498C429.548 100.5 429.566 100.501 429.579 100.502C429.585 100.503 429.59 100.503 429.593 100.503C429.594 100.503 429.595 100.503 429.596 100.503C429.597 100.503 429.598 100.503 429.512 101.822L429.598 100.503L429.887 100.522L430.149 100.648H430.15V100.649H430.152C430.153 100.649 430.154 100.65 430.156 100.651C430.159 100.652 430.164 100.654 430.17 100.657C430.183 100.663 430.2 100.673 430.223 100.684C430.268 100.706 430.334 100.738 430.417 100.779C430.585 100.863 430.826 100.984 431.123 101.138C431.715 101.445 432.535 101.885 433.446 102.413C435.237 103.452 437.5 104.905 439.051 106.431C440.38 107.737 441.589 108.783 442.956 110.095C444.236 111.323 445.484 112.632 446.442 114.08C447.41 115.545 448.106 117.188 448.24 119.078C448.369 120.898 447.966 122.83 446.959 124.925L430.99 259.677L430.955 259.975L430.806 260.237L430.805 260.239C430.805 260.24 430.803 260.242 430.802 260.243C430.8 260.247 430.798 260.252 430.794 260.258C430.788 260.27 430.778 260.287 430.766 260.308C430.741 260.351 430.706 260.413 430.66 260.491C430.568 260.648 430.433 260.872 430.264 261.147C429.926 261.695 429.443 262.45 428.861 263.278C427.724 264.897 426.108 266.944 424.389 268.208C422.661 269.479 420.211 270.413 418.316 271.017C417.346 271.326 416.475 271.563 415.847 271.722C415.533 271.801 415.277 271.861 415.099 271.902C415.01 271.923 414.94 271.939 414.891 271.949C414.867 271.955 414.848 271.959 414.834 271.962C414.828 271.964 414.823 271.965 414.819 271.966C414.817 271.966 414.815 271.967 414.814 271.967H414.812L414.5 270.5L414.811 271.967L414.658 272H274.889L274.78 271.984L275 270.5L274.779 271.984H274.777L274.774 271.983C274.772 271.982 274.77 271.982 274.767 271.982C274.761 271.981 274.754 271.979 274.745 271.978C274.727 271.975 274.702 271.971 274.671 271.966C274.61 271.955 274.523 271.94 274.416 271.919C274.2 271.877 273.896 271.812 273.524 271.719C272.782 271.532 271.76 271.229 270.628 270.756C268.389 269.821 265.579 268.166 263.74 265.313C260.259 259.913 259.271 254.381 259.044 248.583C258.932 245.701 259.006 242.714 259.065 239.656C259.124 236.582 259.167 233.411 259.001 230.074C258.114 212.186 261.777 189.65 265.625 171.674C267.554 162.668 269.537 154.772 271.039 149.126C271.789 146.303 272.42 144.041 272.863 142.485C273.084 141.706 273.259 141.104 273.378 140.695C273.438 140.491 273.484 140.335 273.515 140.23C273.522 140.208 273.527 140.188 273.532 140.171C273.535 140.152 273.539 140.13 273.542 140.107C273.56 139.994 273.586 139.83 273.621 139.62C273.69 139.201 273.795 138.596 273.938 137.851C274.223 136.361 274.661 134.299 275.272 132.01C276.478 127.489 278.413 121.866 281.309 118.087C283.591 115.109 285.699 112.764 288.162 110.831C290.633 108.892 293.407 107.413 296.981 106.093C305.314 103.016 317.804 101.162 331.72 100.082C345.675 98.9997 361.204 98.6876 375.694 98.7502Z" fill="#FFFCFC" stroke="black" stroke-width="3"/>
<path d="M280.5 245.5C279.5 243.5 292.5 129 298 132C298.909 132.496 302.728 132.568 308.5 132.355C337.645 131.277 416.574 122.913 422 125C428.5 127.5 409.5 244.5 408 245.5C406.5 246.5 350.5 248 312.5 246.5C274.5 245 281.5 247.5 280.5 245.5Z" fill="#D9D9D9"/>
<path d="M292 245.5C294.8 203.9 304.167 152.737 308.5 132.355M308.5 132.355C302.728 132.568 298.909 132.496 298 132C292.5 129 279.5 243.5 280.5 245.5C281.5 247.5 274.5 245 312.5 246.5C350.5 248 406.5 246.5 408 245.5C409.5 244.5 428.5 127.5 422 125C416.574 122.913 337.645 131.277 308.5 132.355ZM369 152C369 152 356.5 169 353.5 180.5C350.269 192.885 341.5 211 341.5 211M369 203.5L391.5 185L375 172.5M333 199.5L314 183L335.5 169" stroke="#B2E0FF" stroke-width="2" stroke-linecap="round"/>
<path d="M432 102C436 101.667 445.3 101.7 450.5 104.5C455.7 107.3 462.333 115.333 465 119L478 131.5C486.5 137.833 505.155 147.966 506.5 152C507.5 155 507.5 162.5 507.5 165.5C506.167 187.167 503.5 232.5 503.5 232.5C503.5 232.5 498.5 242.5 497.5 243.5C496.5 244.5 476.278 249.43 462.5 256C462.5 256 427.5 270 427.5 271C434.833 225.667 448.9 132.5 446.5 122.5C444.1 112.5 435.833 104.667 432 102Z" fill="#5D0707"/>
<path d="M432 102H430M432 102C436 101.667 445.3 101.7 450.5 104.5C455.7 107.3 462.333 115.333 465 119L478 131.5C486.5 137.833 505.155 147.966 506.5 152C507.5 155 507.5 162.5 507.5 165.5C506.167 187.167 503.5 232.5 503.5 232.5C503.5 232.5 498.5 242.5 497.5 243.5C496.5 244.5 476.278 249.43 462.5 256C462.5 256 427.5 270 427.5 271C434.833 225.667 448.9 132.5 446.5 122.5C444.1 112.5 435.833 104.667 432 102Z" stroke="black" stroke-width="3" stroke-linecap="round"/>
<path d="M384.5 311.5C384.5 311.5 399.555 308.707 397.5 303C393.329 291.415 383.575 273.817 382.17 271.303C367.529 271.173 355 271 355 271C355 271 371 310 372 311.5C373 313 384.5 311.5 384.5 311.5Z" fill="#5D0707"/>
<path d="M382.17 271.303C402.749 271.486 427.5 271.584 427.5 271M382.17 271.303C367.529 271.173 355 271 355 271M355 271C355 271 371 310 372 311.5C373 313 384.5 311.5 384.5 311.5C384.5 311.5 399.555 308.707 397.5 303C393.329 291.415 383.575 273.817 382.17 271.303C382.059 271.105 382 271 382 271H355Z" stroke="black" stroke-width="3" stroke-linecap="round"/>
<g filter="url(#filter0_d_69_3)">
<path d="M407.612 288V301.5H453.612C475.769 335.129 526.992 398.22 523.612 402.5C517.515 410.222 487.908 440.333 474.5 455L502 460.5C505.667 466 507.182 479.937 511.396 486.749C516.5 495 505.407 500.939 516.5 504.5L550.5 506.569L554.112 507L563.112 486.5L567.612 457.5L563.112 394L554.112 343L538.612 292.5L523.612 282L506.612 279.5L421.112 276C418.112 277 416.212 280.8 412.612 282C409.012 283.2 407.779 286.5 407.612 288Z" fill="#5B5766"/>
<path d="M326.112 489.5C323.712 498.3 322.445 503.167 322.112 504.5C322.112 504.667 322.112 505.2 322.112 506C322.112 506.8 335.445 507 342.112 507C343.112 506.167 345.312 504.1 346.112 502.5C346.912 500.9 355.779 493.167 360.112 489.5C359.612 491.5 358.312 495.4 357.112 495C355.612 494.5 361.612 496.5 362.112 495C362.612 493.5 366.112 489.5 364.112 488.5C362.512 487.7 366.112 488.167 368.112 488.5L362.112 507C362.112 508 362.112 509.9 362.112 509.5C362.112 509.1 377.779 510.667 385.612 511.5C386.445 508 388.412 500.6 389.612 499C391.112 497 395.612 491.5 397.612 492C399.212 492.4 395.945 496.833 394.112 499H411.112C424.112 501.333 450.812 507.1 453.612 511.5C457.112 517 460.612 527 457.112 529.5C454.312 531.5 413.945 562.667 394.112 578C389.945 579.333 380.512 581.6 376.112 580C371.712 578.4 219.279 554 143.612 542C139.779 540 132.012 535.1 131.612 531.5C131.112 527 127.612 521.5 129.612 518.5C131.612 515.5 193.112 484 203.112 482.5C211.112 481.3 210.445 481 209.112 481H238.112M326.112 489.5L323.612 492.5C319.112 491.5 310.012 489.5 309.612 489.5C309.212 489.5 311.112 484.833 312.112 482.5C309.779 484.5 304.212 490.9 300.612 500.5L288.612 502.5L279.112 500.5L276.112 497L281.112 477.5H279.112V487H270.612L276.112 479.5C275.612 480.5 273.112 483.4 267.112 487C261.112 490.6 258.612 496.167 258.112 498.5C250.279 498 234.612 496.6 234.612 495C234.612 493.4 234.612 492.667 234.612 492.5L238.112 481M326.112 489.5C327.254 485.314 329.949 481.113 332.928 477.5M238.112 481C241.612 476 247.612 471.5 250.112 468.5C252.612 465.5 254.612 462.865 259.612 460.5C263.112 456.365 270.612 455.514 270.612 455C270.612 454 290.612 455 299.112 457.5C305.912 459.5 312.612 465.667 315.112 468.5C316.445 471.5 321.875 477.5 332.928 477.5M332.928 477.5C336.211 473.517 339.84 470.248 342.112 468.5C351.112 467.167 371.712 465.3 382.112 468.5C392.512 471.7 399.112 477.167 401.112 479.5L407.612 489.5L516.5 504.5M516.5 504.5L550.5 506.569L554.112 507L563.112 486.5L567.612 457.5L563.112 394L554.112 343L538.612 292.5L523.612 282L506.612 279.5L421.112 276C418.112 277 416.212 280.8 412.612 282C409.012 283.2 407.779 286.5 407.612 288V301.5H453.612C475.769 335.129 526.992 398.22 523.612 402.5C517.515 410.222 487.908 440.333 474.5 455L502 460.5C505.667 466 507.182 479.937 511.396 486.749C516.5 495 505.407 500.939 516.5 504.5ZM550.5 506.569C539.013 506.427 521.919 506.24 516.5 504.5" stroke="black" stroke-width="3" stroke-linecap="round"/>
</g>
<g filter="url(#filter1_d_69_3)">
<path d="M504 372.5C500 368.5 461 301.5 451.5 301.5H449C444 312.5 435.5 344.2 441.5 383C447.5 421.8 450.667 433.833 451.5 435C452.211 437 459.796 450.018 463.5 456.277C466.567 456.044 469.892 455.786 473.5 455.5L504 425C511 419.333 524.5 406.7 522.5 401.5C520 395 508 376.5 504 372.5Z" fill="#D9D9D9"/>
<path d="M331.5 458.5L381 461C383 459 407.5 460.167 419.5 461C427.393 458.214 423.646 459.309 463.5 456.277C459.796 450.018 452.211 437 451.5 435C451.5 436.5 424.856 438.6 318.281 435C319.021 442.598 319.662 448.037 320 449.5C321.2 454.7 328.167 457.667 331.5 458.5Z" fill="#D9D9D9"/>
<path d="M375.056 312.452C378.042 311.707 349.463 302.663 334.5 306.5C315 311.5 315.5 347 315.5 354C315.5 358.666 315.732 408.841 318.281 435C424.856 438.6 451.5 436.5 451.5 435C450.667 433.833 447.5 421.8 441.5 383C435.5 344.2 444 312.5 449 301.5H397.5C397.5 305.5 389.833 309.833 386 311.5L375.056 312.452C374.929 312.483 374.745 312.5 374.5 312.5L375.056 312.452Z" fill="white"/>
<path d="M512.5 500C512.167 498.167 512.5 493.5 512.5 489C512.5 483.41 504 462 504 460.5C504 459.3 483.667 456.667 473.5 455.5M473.5 455.5L504 425C511 419.333 524.5 406.7 522.5 401.5C520 395 508 376.5 504 372.5C500 368.5 461 301.5 451.5 301.5M419.5 461C427.393 458.214 423.646 459.309 463.5 456.277C466.567 456.043 469.892 455.786 473.5 455.5M381 461L331.5 458.5C328.167 457.667 321.2 454.7 320 449.5C319.662 448.037 319.021 442.598 318.281 435C315.732 408.841 315.5 358.666 315.5 354C315.5 347 315 311.5 334.5 306.5C349.463 302.663 378.042 311.707 375.056 312.452M318.281 435C424.856 438.6 451.5 436.5 451.5 435M381 461L399 476.5C403 472.333 412.7 463.4 419.5 461M381 461C383 459 407.5 460.167 419.5 461M449 301.5C444 312.5 435.5 344.2 441.5 383C447.5 421.8 450.667 433.833 451.5 435C452.211 437 459.796 450.018 463.5 456.277M449 301.5H451.5M449 301.5C449.997 301.5 450.839 301.5 451.5 301.5M375.056 312.452L386 311.5C389.833 309.833 397.5 305.5 397.5 301.5C411.043 301.5 438.536 301.5 449 301.5M449 301.5H397.5M375.056 312.452C374.929 312.483 374.745 312.5 374.5 312.5L375.056 312.452Z" stroke="black" stroke-width="3" stroke-linecap="round"/>
</g>
<path d="M234.188 387.5C234.188 394.956 229.176 401 222.993 401C216.809 401 226.991 395.956 226.991 388.5C226.991 381.044 216.809 374 222.993 374C229.176 374 234.188 380.044 234.188 387.5Z" fill="#D9D9D9"/>
<path d="M202 400.5C202 407.956 207.013 414 213.196 414C219.379 414 209.197 408.956 209.197 401.5C209.197 394.044 219.379 387 213.196 387C207.013 387 202 393.044 202 400.5Z" fill="#D9D9D9"/>
<path fill-rule="evenodd" clip-rule="evenodd" d="M209 438C221.873 438 232.716 439.088 235.988 440.567C241.636 439.369 245.782 440.281 248.068 443.397C250.36 446.52 250.062 451.002 248.962 454.896C247.825 458.921 245.641 463.023 243.209 465.936C241.998 467.385 240.639 468.646 239.215 469.421C238.019 470.071 236.567 470.478 235.108 470.101C231.931 475.712 225.909 479.5 219 479.5H197C187.887 479.5 180.5 472.113 180.5 463V441.5H181C181 439.567 193.536 438 209 438ZM234.5 442.945C230.095 444.156 220.334 445 209 445C197.666 445 187.905 444.156 183.5 442.945V463C183.5 470.456 189.544 476.5 197 476.5H219C227.56 476.5 234.5 469.56 234.5 461V442.945ZM244.844 445.765C243.986 444.596 242.013 443.515 237.5 444.345V461C237.5 462.786 237.245 464.512 236.772 466.146C236.923 466.094 237.099 466.018 237.303 465.907C238.12 465.463 239.104 464.611 240.14 463.371C242.201 460.903 244.125 457.306 245.113 453.809C246.138 450.182 245.983 447.318 244.844 445.765Z" fill="#02663A"/>
<path d="M371 561.5L266.5 544.5L147 525C142 523.167 132.1 518.5 132.5 514.5C132.9 510.5 180.333 489.5 204 479.5H236.5L232.5 492L235.5 496.5C242.167 501 260.7 512.3 281.5 521.5C302.3 530.7 349.833 552 371 561.5C378.349 562.419 383.627 562.224 386.521 561.858L454 514L452.5 516L388.5 561.5L383.5 564L386.521 561.858C383.627 562.224 378.349 562.419 371 561.5Z" fill="#B2E0FF"/>
<path d="M371 561.5L266.5 544.5L147 525C142 523.167 132.1 518.5 132.5 514.5C132.9 510.5 180.333 489.5 204 479.5H236.5L232.5 492L235.5 496.5C242.167 501 260.7 512.3 281.5 521.5C302.3 530.7 349.833 552 371 561.5ZM371 561.5C380.6 562.7 386.667 562 388.5 561.5M383.5 564L388.5 561.5L452.5 516L454 514L383.5 564V576M397.5 366V387H422.5C424.833 380 428.1 366 422.5 366C416.9 366 407.5 366 403.5 366" stroke="black" stroke-width="3" stroke-linecap="round"/>
<defs>
<filter id="filter0_d_69_3" x="123.5" y="274.49" width="449.62" height="315.56" filterUnits="userSpaceOnUse" color-interpolation-filters="sRGB">
<feFlood flood-opacity="0" result="BackgroundImageFix"/>
<feColorMatrix in="SourceAlpha" type="matrix" values="0 0 0 0 0 0 0 0 0 0 0 0 0 0 0 0 0 0 127 0" result="hardAlpha"/>
<feOffset dy="4"/>
<feGaussianBlur stdDeviation="2"/>
<feComposite in2="hardAlpha" operator="out"/>
<feColorMatrix type="matrix" values="0 0 0 0 0 0 0 0 0 0 0 0 0 0 0 0 0 0 0.25 0"/>
<feBlend mode="normal" in2="BackgroundImageFix" result="effect1_dropShadow_69_3"/>
<feBlend mode="normal" in="SourceGraphic" in2="effect1_dropShadow_69_3" result="shape"/>
</filter>
<filter id="filter1_d_69_3" x="309.999" y="300" width="218.202" height="209.5" filterUnits="userSpaceOnUse" color-interpolation-filters="sRGB">
<feFlood flood-opacity="0" result="BackgroundImageFix"/>
<feColorMatrix in="SourceAlpha" type="matrix" values="0 0 0 0 0 0 0 0 0 0 0 0 0 0 0 0 0 0 127 0" result="hardAlpha"/>
<feOffset dy="4"/>
<feGaussianBlur stdDeviation="2"/>
<feComposite in2="hardAlpha" operator="out"/>
<feColorMatrix type="matrix" values="0 0 0 0 0 0 0 0 0 0 0 0 0 0 0 0 0 0 0.25 0"/>
<feBlend mode="normal" in2="BackgroundImageFix" result="effect1_dropShadow_69_3"/>
<feBlend mode="normal" in="SourceGraphic" in2="effect1_dropShadow_69_3" result="shape"/>
</filter>
</defs>
</svg>
